# Blender v2.79 (sub 0) OBJ File: ''
# www.blender.org
mtllib bus.mtl
o _2
v -27.557098 -314.207001 7.604784
v -27.557095 -314.207001 39.053005
v -79.468689 -314.207001 39.053013
v -79.468697 -314.207001 7.604793
v -79.468689 -145.792999 39.053013
v -79.468697 -145.792999 7.604793
v -79.468697 -133.634995 -3.544697
v -79.468697 -133.634995 7.604793
v -27.557098 -133.634995 7.604784
v -27.557100 -133.634995 -3.544695
v -27.557100 -145.792999 -3.544695
v -27.557098 -145.792999 7.604784
v -27.557100 -314.207001 -3.544695
v -27.557095 -145.792999 39.053005
v -79.468697 -314.207001 -3.544697
v -79.468697 -145.792999 -3.544697
v -27.557095 -143.817001 39.053005
v -79.468689 -143.817001 39.053013
v -30.835501 -277.092987 -2.913905
v -30.835501 -284.630005 -2.913905
v -30.835501 -284.175995 -0.477729
v -26.087799 -284.630005 -2.913906
v -26.087799 -284.175995 -0.477730
v -26.087799 -277.092987 -2.913906
v -30.835501 -282.867004 1.664615
v -26.087799 -282.867004 1.664614
v -30.835501 -280.862000 3.254715
v -26.087799 -280.862000 3.254714
v -30.835501 -278.402008 4.100795
v -26.087799 -278.402008 4.100794
v -30.835501 -275.783997 4.100795
v -26.087799 -275.783997 4.100794
v -30.835501 -273.324005 3.254715
v -26.087799 -273.324005 3.254714
v -30.835501 -271.319000 1.664615
v -26.087799 -271.319000 1.664614
v -30.835501 -270.010010 -0.477729
v -26.087799 -270.010010 -0.477730
v -30.835501 -269.556000 -2.913905
v -26.087799 -269.556000 -2.913906
v -30.835501 -270.010010 -5.350095
v -26.087799 -270.010010 -5.350096
v -30.835503 -271.319000 -7.492435
v -26.087801 -271.319000 -7.492436
v -30.835503 -273.324005 -9.082535
v -26.087801 -273.324005 -9.082536
v -30.835503 -275.783997 -9.928616
v -26.087801 -275.783997 -9.928617
v -30.835503 -278.402008 -9.928616
v -26.087801 -278.402008 -9.928617
v -30.835503 -280.862000 -9.082535
v -26.087801 -280.862000 -9.082536
v -30.835503 -282.867004 -7.492435
v -26.087801 -282.867004 -7.492436
v -30.835501 -284.175995 -5.350095
v -26.087799 -284.175995 -5.350096
v -81.649803 -277.092987 -2.913907
v -81.649803 -284.630005 -2.913907
v -81.649803 -284.175995 -0.477723
v -76.902000 -284.630005 -2.913907
v -76.902000 -284.175995 -0.477723
v -76.902000 -277.092987 -2.913907
v -81.649803 -282.867004 1.664623
v -76.902000 -282.867004 1.664623
v -81.649803 -280.862000 3.254723
v -76.902000 -280.862000 3.254723
v -81.649803 -278.402008 4.100803
v -76.902000 -278.402008 4.100802
v -81.649803 -275.783997 4.100803
v -76.902000 -275.783997 4.100802
v -81.649803 -273.324005 3.254723
v -76.902000 -273.324005 3.254723
v -81.649803 -271.319000 1.664623
v -76.902000 -271.319000 1.664623
v -81.649803 -270.010010 -0.477723
v -76.902000 -270.010010 -0.477723
v -81.649803 -269.556000 -2.913907
v -76.902000 -269.556000 -2.913907
v -81.649803 -270.010010 -5.350087
v -76.902000 -270.010010 -5.350088
v -81.649803 -271.319000 -7.492427
v -76.902000 -271.319000 -7.492428
v -81.649803 -273.324005 -9.082526
v -76.902000 -273.324005 -9.082527
v -81.649803 -275.783997 -9.928607
v -76.902000 -275.783997 -9.928608
v -81.649803 -278.402008 -9.928607
v -76.902000 -278.402008 -9.928608
v -81.649803 -280.862000 -9.082526
v -76.902000 -280.862000 -9.082527
v -81.649803 -282.867004 -7.492427
v -76.902000 -282.867004 -7.492428
v -81.649803 -284.175995 -5.350087
v -76.902000 -284.175995 -5.350088
v -30.059299 -165.589005 -3.279315
v -30.059299 -173.126007 -3.279315
v -30.059299 -172.671997 -0.843139
v -25.311600 -173.126007 -3.279316
v -25.311600 -172.671997 -0.843140
v -25.311600 -165.589005 -3.279316
v -30.059299 -171.363007 1.299205
v -25.311600 -171.363007 1.299204
v -30.059299 -169.358002 2.889305
v -25.311600 -169.358002 2.889304
v -30.059299 -166.897995 3.735385
v -25.311600 -166.897995 3.735384
v -30.059299 -164.279999 3.735385
v -25.311600 -164.279999 3.735384
v -30.059299 -161.820007 2.889305
v -25.311600 -161.820007 2.889304
v -30.059299 -159.815002 1.299205
v -25.311600 -159.815002 1.299204
v -30.059299 -158.505997 -0.843139
v -25.311600 -158.505997 -0.843140
v -30.059299 -158.052002 -3.279315
v -25.311600 -158.052002 -3.279316
v -30.059299 -158.505997 -5.715505
v -25.311600 -158.505997 -5.715506
v -30.059301 -159.815002 -7.857845
v -25.311602 -159.815002 -7.857846
v -30.059301 -161.820007 -9.447946
v -25.311602 -161.820007 -9.447947
v -30.059301 -164.279999 -10.293995
v -25.311602 -164.279999 -10.293996
v -30.059301 -166.897995 -10.293995
v -25.311602 -166.897995 -10.293996
v -30.059301 -169.358002 -9.447946
v -25.311602 -169.358002 -9.447947
v -30.059301 -171.363007 -7.857845
v -25.311602 -171.363007 -7.857846
v -30.059299 -172.671997 -5.715505
v -25.311600 -172.671997 -5.715506
v -80.873596 -165.589005 -3.279317
v -80.873596 -173.126007 -3.279317
v -80.873596 -172.671997 -0.843133
v -76.125900 -173.126007 -3.279318
v -76.125900 -172.671997 -0.843134
v -76.125900 -165.589005 -3.279318
v -80.873596 -171.363007 1.299213
v -76.125900 -171.363007 1.299212
v -80.873596 -169.358002 2.889313
v -76.125900 -169.358002 2.889313
v -80.873596 -166.897995 3.735393
v -76.125900 -166.897995 3.735392
v -80.873596 -164.279999 3.735393
v -76.125900 -164.279999 3.735392
v -80.873596 -161.820007 2.889313
v -76.125900 -161.820007 2.889313
v -80.873596 -159.815002 1.299213
v -76.125900 -159.815002 1.299212
v -80.873596 -158.505997 -0.843133
v -76.125900 -158.505997 -0.843134
v -80.873596 -158.052002 -3.279317
v -76.125900 -158.052002 -3.279318
v -80.873596 -158.505997 -5.715497
v -76.125900 -158.505997 -5.715497
v -80.873596 -159.815002 -7.857837
v -76.125900 -159.815002 -7.857838
v -80.873596 -161.820007 -9.447937
v -76.125900 -161.820007 -9.447938
v -80.873596 -164.279999 -10.293986
v -76.125900 -164.279999 -10.293987
v -80.873596 -166.897995 -10.293986
v -76.125900 -166.897995 -10.293987
v -80.873596 -169.358002 -9.447937
v -76.125900 -169.358002 -9.447938
v -80.873596 -171.363007 -7.857837
v -76.125900 -171.363007 -7.857838
v -80.873596 -172.671997 -5.715497
v -76.125900 -172.671997 -5.715497
vt 0.943072 -0.252102
vt 0.807064 -0.252102
vt 0.807064 -0.009413
vt 0.943072 -0.009413
vt 0.008708 -0.679467
vt 0.008708 -0.532445
vt 0.737065 -0.532445
vt 0.737065 -0.679467
vt 0.763029 -0.270929
vt 0.810659 -0.270929
vt 0.810659 -0.513618
vt 0.763029 -0.513618
vt 0.061291 -0.949564
vt 0.061291 -0.897440
vt 0.789648 -0.897440
vt 0.789648 -0.949564
vt 0.745613 -0.513618
vt 0.017255 -0.513618
vt 0.017255 -0.270929
vt 0.745613 -0.270929
vt 0.737065 -0.252102
vt 0.008708 -0.252102
vt 0.008708 -0.009413
vt 0.737065 -0.009413
vt 0.789648 -0.009413
vt 0.789648 -0.252102
vt 0.008708 -0.897440
vt 0.052744 -0.750418
vt 0.061291 -0.750418
vt 0.008708 -0.513618
vt 0.008708 -0.270929
vt 0.789648 -0.679467
vt 0.789648 -0.731591
vt 0.737065 -0.731591
vt 0.991292 -0.009413
vt 0.991292 -0.252102
vt 0.789648 -0.750418
vt 0.951869 -0.270929
vt 0.951869 -0.513618
vt 0.008708 -0.949564
vt 0.745613 -0.532445
vt 0.922271 -0.698797
vt 0.889674 -0.698797
vt 0.891640 -0.687408
vt 0.471496 -0.968391
vt 0.471496 -0.990587
vt 0.460778 -0.990587
vt 0.460778 -0.968391
vt 0.954868 -0.783212
vt 0.922271 -0.783212
vt 0.952902 -0.771823
vt 0.897301 -0.677392
vt 0.450648 -0.990587
vt 0.450648 -0.968391
vt 0.947242 -0.761807
vt 0.905973 -0.669958
vt 0.442326 -0.990587
vt 0.442326 -0.968391
vt 0.938570 -0.754373
vt 0.916611 -0.666003
vt 0.608115 -0.968391
vt 0.608115 -0.990587
vt 0.598236 -0.990587
vt 0.598236 -0.968391
vt 0.927932 -0.750418
vt 0.927932 -0.666003
vt 0.587074 -0.990587
vt 0.587074 -0.968391
vt 0.916611 -0.750418
vt 0.938570 -0.669958
vt 0.575975 -0.990587
vt 0.575975 -0.968391
vt 0.905973 -0.754373
vt 0.947242 -0.677392
vt 0.566277 -0.990587
vt 0.566277 -0.968391
vt 0.897301 -0.761807
vt 0.952902 -0.687408
vt 0.424909 -0.968391
vt 0.424909 -0.990587
vt 0.416811 -0.990587
vt 0.416811 -0.968391
vt 0.891640 -0.771823
vt 0.954868 -0.698797
vt 0.406799 -0.990587
vt 0.406799 -0.968391
vt 0.889674 -0.783212
vt 0.952902 -0.710186
vt 0.396081 -0.990587
vt 0.396081 -0.968391
vt 0.891640 -0.794601
vt 0.947242 -0.720202
vt 0.385950 -0.990587
vt 0.385950 -0.968391
vt 0.897301 -0.804617
vt 0.938570 -0.727636
vt 0.377628 -0.990587
vt 0.377628 -0.968391
vt 0.905973 -0.812050
vt 0.927932 -0.731591
vt 0.548861 -0.968391
vt 0.548861 -0.990587
vt 0.538982 -0.990587
vt 0.538982 -0.968391
vt 0.916611 -0.816006
vt 0.916611 -0.731591
vt 0.527820 -0.990587
vt 0.527820 -0.968391
vt 0.927932 -0.816006
vt 0.905973 -0.727636
vt 0.516721 -0.990587
vt 0.516721 -0.968391
vt 0.938570 -0.812050
vt 0.897301 -0.720202
vt 0.507023 -0.990587
vt 0.507023 -0.968391
vt 0.947242 -0.804617
vt 0.891640 -0.710186
vt 0.489607 -0.968391
vt 0.489607 -0.990587
vt 0.481508 -0.990587
vt 0.481508 -0.968391
vt 0.952902 -0.794601
vt 0.839661 -0.698797
vt 0.807064 -0.698797
vt 0.809030 -0.687408
vt 0.910532 -0.834833
vt 0.910532 -0.857028
vt 0.899814 -0.857028
vt 0.899814 -0.834833
vt 0.872258 -0.614382
vt 0.839661 -0.614382
vt 0.870292 -0.602993
vt 0.814691 -0.677392
vt 0.889674 -0.857028
vt 0.889674 -0.834833
vt 0.864632 -0.592978
vt 0.823363 -0.669958
vt 0.360212 -0.968391
vt 0.360212 -0.990587
vt 0.352826 -0.990587
vt 0.352826 -0.968391
vt 0.855960 -0.585544
vt 0.834001 -0.666003
vt 0.342959 -0.990587
vt 0.342959 -0.968391
vt 0.845322 -0.581588
vt 0.845322 -0.666003
vt 0.331801 -0.990587
vt 0.331801 -0.968391
vt 0.834001 -0.581588
vt 0.855960 -0.669958
vt 0.320697 -0.990587
vt 0.320697 -0.968391
vt 0.823363 -0.585544
vt 0.864632 -0.677392
vt 0.310988 -0.990587
vt 0.310988 -0.968391
vt 0.814691 -0.592978
vt 0.870292 -0.687408
vt 0.303844 -0.990587
vt 0.303844 -0.968391
vt 0.809030 -0.602993
vt 0.872258 -0.698797
vt 0.704670 -0.968391
vt 0.704670 -0.990587
vt 0.694667 -0.990587
vt 0.694667 -0.968391
vt 0.807064 -0.614382
vt 0.870292 -0.710186
vt 0.683949 -0.990587
vt 0.683949 -0.968391
vt 0.809030 -0.625772
vt 0.864632 -0.720202
vt 0.673809 -0.990587
vt 0.673809 -0.968391
vt 0.814691 -0.635787
vt 0.855960 -0.727636
vt 0.138860 -0.968391
vt 0.138860 -0.990587
vt 0.131474 -0.990587
vt 0.131474 -0.968391
vt 0.823363 -0.643221
vt 0.845322 -0.731591
vt 0.121607 -0.990587
vt 0.121607 -0.968391
vt 0.834001 -0.647176
vt 0.834001 -0.731591
vt 0.110449 -0.990587
vt 0.110449 -0.968391
vt 0.845322 -0.647176
vt 0.823363 -0.727636
vt 0.099345 -0.990587
vt 0.099345 -0.968391
vt 0.855960 -0.643221
vt 0.814691 -0.720202
vt 0.089636 -0.990587
vt 0.089636 -0.968391
vt 0.864632 -0.635787
vt 0.809030 -0.710186
vt 0.082492 -0.990587
vt 0.082492 -0.968391
vt 0.870292 -0.625772
vt 0.920535 -0.834833
vt 0.920535 -0.857028
vt 0.839661 -0.952042
vt 0.807064 -0.952042
vt 0.809030 -0.940652
vt 0.646390 -0.968391
vt 0.646390 -0.990587
vt 0.635672 -0.990587
vt 0.635672 -0.968391
vt 0.954868 -0.614382
vt 0.922271 -0.614382
vt 0.952902 -0.602993
vt 0.814691 -0.930637
vt 0.625532 -0.990587
vt 0.625532 -0.968391
vt 0.947242 -0.592978
vt 0.823363 -0.923203
vt 0.065076 -0.968391
vt 0.065076 -0.990587
vt 0.057690 -0.990587
vt 0.057690 -0.968391
vt 0.938570 -0.585544
vt 0.834001 -0.919247
vt 0.047823 -0.990587
vt 0.047823 -0.968391
vt 0.927932 -0.581588
vt 0.845322 -0.919247
vt 0.036665 -0.990587
vt 0.036665 -0.968391
vt 0.916611 -0.581588
vt 0.855960 -0.923203
vt 0.025561 -0.990587
vt 0.025561 -0.968391
vt 0.905973 -0.585544
vt 0.864632 -0.930637
vt 0.015852 -0.990587
vt 0.015852 -0.968391
vt 0.897301 -0.592978
vt 0.870292 -0.940652
vt 0.008708 -0.990587
vt 0.008708 -0.968391
vt 0.891640 -0.602993
vt 0.872258 -0.952042
vt 0.911709 -0.540566
vt 0.911709 -0.562762
vt 0.901706 -0.562762
vt 0.901706 -0.540566
vt 0.889674 -0.614382
vt 0.870292 -0.963431
vt 0.890988 -0.562762
vt 0.890988 -0.540566
vt 0.891640 -0.625772
vt 0.864632 -0.973446
vt 0.880848 -0.562762
vt 0.880848 -0.540566
vt 0.897301 -0.635787
vt 0.855960 -0.980880
vt 0.863432 -0.540566
vt 0.863432 -0.562762
vt 0.856046 -0.562762
vt 0.856046 -0.540566
vt 0.905973 -0.643221
vt 0.845322 -0.984836
vt 0.846179 -0.562762
vt 0.846179 -0.540566
vt 0.916611 -0.647176
vt 0.834001 -0.984836
vt 0.835021 -0.562762
vt 0.835021 -0.540566
vt 0.927932 -0.647176
vt 0.823363 -0.980880
vt 0.823918 -0.562762
vt 0.823918 -0.540566
vt 0.938570 -0.643221
vt 0.814691 -0.973446
vt 0.814208 -0.562762
vt 0.814208 -0.540566
vt 0.947242 -0.635787
vt 0.809030 -0.963431
vt 0.807064 -0.562762
vt 0.807064 -0.540566
vt 0.952902 -0.625772
vt 0.656393 -0.968391
vt 0.656393 -0.990587
vt 0.839661 -0.783212
vt 0.807064 -0.783212
vt 0.809030 -0.771823
vt 0.910532 -0.875855
vt 0.910532 -0.898051
vt 0.899814 -0.898051
vt 0.899814 -0.875855
vt 0.872258 -0.867627
vt 0.839661 -0.867627
vt 0.870292 -0.856237
vt 0.814691 -0.761807
vt 0.889674 -0.898051
vt 0.889674 -0.875855
vt 0.864632 -0.846222
vt 0.823363 -0.754373
vt 0.286428 -0.968391
vt 0.286428 -0.990587
vt 0.279042 -0.990587
vt 0.279042 -0.968391
vt 0.855960 -0.838788
vt 0.834001 -0.750418
vt 0.269175 -0.990587
vt 0.269175 -0.968391
vt 0.845322 -0.834833
vt 0.845322 -0.750418
vt 0.258017 -0.990587
vt 0.258017 -0.968391
vt 0.834001 -0.834833
vt 0.855960 -0.754373
vt 0.246913 -0.990587
vt 0.246913 -0.968391
vt 0.823363 -0.838788
vt 0.864632 -0.761807
vt 0.237204 -0.990587
vt 0.237204 -0.968391
vt 0.814691 -0.846222
vt 0.870292 -0.771823
vt 0.230060 -0.990587
vt 0.230060 -0.968391
vt 0.809030 -0.856237
vt 0.872258 -0.783212
vt 0.752947 -0.968391
vt 0.752947 -0.990587
vt 0.742944 -0.990587
vt 0.742944 -0.968391
vt 0.807064 -0.867627
vt 0.870292 -0.794601
vt 0.732226 -0.990587
vt 0.732226 -0.968391
vt 0.809030 -0.879016
vt 0.864632 -0.804617
vt 0.722086 -0.990587
vt 0.722086 -0.968391
vt 0.814691 -0.889032
vt 0.855960 -0.812050
vt 0.212644 -0.968391
vt 0.212644 -0.990587
vt 0.205258 -0.990587
vt 0.205258 -0.968391
vt 0.823363 -0.896465
vt 0.845322 -0.816006
vt 0.195391 -0.990587
vt 0.195391 -0.968391
vt 0.834001 -0.900421
vt 0.834001 -0.816006
vt 0.184233 -0.990587
vt 0.184233 -0.968391
vt 0.845322 -0.900421
vt 0.823363 -0.812050
vt 0.173129 -0.990587
vt 0.173129 -0.968391
vt 0.855960 -0.896465
vt 0.814691 -0.804617
vt 0.163420 -0.990587
vt 0.163420 -0.968391
vt 0.864632 -0.889032
vt 0.809030 -0.794601
vt 0.156276 -0.990587
vt 0.156276 -0.968391
vt 0.870292 -0.879016
vt 0.920535 -0.875855
vt 0.920535 -0.898051
vt 0.008708 -0.731591
vn 0.0000 -1.0000 -0.0000
vn -1.0000 0.0000 0.0000
vn 0.0000 1.0000 -0.0000
vn 1.0000 0.0000 -0.0000
vn 0.0000 0.0000 1.0000
vn 0.0000 0.0000 -1.0000
vn 0.0000 0.9514 0.3080
vn 0.0000 -0.9831 0.1832
vn 0.0000 -0.8533 0.5214
vn 0.0000 -0.6214 0.7835
vn 0.0000 -0.3252 0.9456
vn 0.0000 0.3252 0.9456
vn 0.0000 0.6214 0.7835
vn 0.0000 0.8533 0.5214
vn 0.0000 0.9831 0.1832
vn -0.0000 0.9831 -0.1832
vn -0.0000 0.8533 -0.5214
vn -0.0000 0.6214 -0.7835
vn -0.0000 0.3252 -0.9456
vn -0.0000 -0.3252 -0.9456
vn -0.0000 -0.6214 -0.7835
vn -0.0000 -0.8533 -0.5214
vn -0.0000 -0.9831 -0.1832
usemtl material_3
s off
f 1/1/1 2/2/1 3/3/1 4/4/1
f 4/5/2 3/6/2 5/7/2 6/8/2
f 7/9/3 8/10/3 9/11/3 10/12/3
f 11/13/4 12/14/4 1/15/4 13/16/4
f 2/17/5 14/18/5 5/19/5 3/20/5
f 11/21/6 13/22/6 15/23/6 16/24/6
f 16/24/6 7/25/6 10/26/6 11/21/6
f 9/27/4 17/28/4 14/29/4 12/14/4
f 14/18/5 17/30/5 18/31/5 5/19/5
f 8/32/2 7/33/2 16/34/2 6/8/2
f 4/4/1 15/35/1 13/36/1 1/1/1
f 12/14/4 14/29/4 2/37/4 1/15/4
f 8/10/7 18/38/7 17/39/7 9/11/7
f 12/14/4 11/13/4 10/40/4 9/27/4
f 6/8/2 5/7/2 18/41/2 8/32/2
f 19/42/2 20/43/2 21/44/2
f 20/45/8 22/46/8 23/47/8 21/48/8
f 22/49/4 24/50/4 23/51/4
f 19/42/2 21/44/2 25/52/2
f 21/48/9 23/47/9 26/53/9 25/54/9
f 23/51/4 24/50/4 26/55/4
f 19/42/2 25/52/2 27/56/2
f 25/54/10 26/53/10 28/57/10 27/58/10
f 26/55/4 24/50/4 28/59/4
f 19/42/2 27/56/2 29/60/2
f 27/61/11 28/62/11 30/63/11 29/64/11
f 28/59/4 24/50/4 30/65/4
f 19/42/2 29/60/2 31/66/2
f 29/64/5 30/63/5 32/67/5 31/68/5
f 30/65/4 24/50/4 32/69/4
f 19/42/2 31/66/2 33/70/2
f 31/68/12 32/67/12 34/71/12 33/72/12
f 32/69/4 24/50/4 34/73/4
f 19/42/2 33/70/2 35/74/2
f 33/72/13 34/71/13 36/75/13 35/76/13
f 34/73/4 24/50/4 36/77/4
f 19/42/2 35/74/2 37/78/2
f 35/79/14 36/80/14 38/81/14 37/82/14
f 36/77/4 24/50/4 38/83/4
f 19/42/2 37/78/2 39/84/2
f 37/82/15 38/81/15 40/85/15 39/86/15
f 38/83/4 24/50/4 40/87/4
f 19/42/2 39/84/2 41/88/2
f 39/86/16 40/85/16 42/89/16 41/90/16
f 40/87/4 24/50/4 42/91/4
f 19/42/2 41/88/2 43/92/2
f 41/90/17 42/89/17 44/93/17 43/94/17
f 42/91/4 24/50/4 44/95/4
f 19/42/2 43/92/2 45/96/2
f 43/94/18 44/93/18 46/97/18 45/98/18
f 44/95/4 24/50/4 46/99/4
f 19/42/2 45/96/2 47/100/2
f 45/101/19 46/102/19 48/103/19 47/104/19
f 46/99/4 24/50/4 48/105/4
f 19/42/2 47/100/2 49/106/2
f 47/104/6 48/103/6 50/107/6 49/108/6
f 48/105/4 24/50/4 50/109/4
f 19/42/2 49/106/2 51/110/2
f 49/108/20 50/107/20 52/111/20 51/112/20
f 50/109/4 24/50/4 52/113/4
f 19/42/2 51/110/2 53/114/2
f 51/112/21 52/111/21 54/115/21 53/116/21
f 52/113/4 24/50/4 54/117/4
f 19/42/2 53/114/2 55/118/2
f 53/119/22 54/120/22 56/121/22 55/122/22
f 54/117/4 24/50/4 56/123/4
f 19/42/2 55/118/2 20/43/2
f 55/122/23 56/121/23 22/46/23 20/45/23
f 56/123/4 24/50/4 22/49/4
f 57/124/2 58/125/2 59/126/2
f 58/127/8 60/128/8 61/129/8 59/130/8
f 60/131/4 62/132/4 61/133/4
f 57/124/2 59/126/2 63/134/2
f 59/130/9 61/129/9 64/135/9 63/136/9
f 61/133/4 62/132/4 64/137/4
f 57/124/2 63/134/2 65/138/2
f 63/139/10 64/140/10 66/141/10 65/142/10
f 64/137/4 62/132/4 66/143/4
f 57/124/2 65/138/2 67/144/2
f 65/142/11 66/141/11 68/145/11 67/146/11
f 66/143/4 62/132/4 68/147/4
f 57/124/2 67/144/2 69/148/2
f 67/146/5 68/145/5 70/149/5 69/150/5
f 68/147/4 62/132/4 70/151/4
f 57/124/2 69/148/2 71/152/2
f 69/150/12 70/149/12 72/153/12 71/154/12
f 70/151/4 62/132/4 72/155/4
f 57/124/2 71/152/2 73/156/2
f 71/154/13 72/153/13 74/157/13 73/158/13
f 72/155/4 62/132/4 74/159/4
f 57/124/2 73/156/2 75/160/2
f 73/158/14 74/157/14 76/161/14 75/162/14
f 74/159/4 62/132/4 76/163/4
f 57/124/2 75/160/2 77/164/2
f 75/165/15 76/166/15 78/167/15 77/168/15
f 76/163/4 62/132/4 78/169/4
f 57/124/2 77/164/2 79/170/2
f 77/168/16 78/167/16 80/171/16 79/172/16
f 78/169/4 62/132/4 80/173/4
f 57/124/2 79/170/2 81/174/2
f 79/172/17 80/171/17 82/175/17 81/176/17
f 80/173/4 62/132/4 82/177/4
f 57/124/2 81/174/2 83/178/2
f 81/179/18 82/180/18 84/181/18 83/182/18
f 82/177/4 62/132/4 84/183/4
f 57/124/2 83/178/2 85/184/2
f 83/182/19 84/181/19 86/185/19 85/186/19
f 84/183/4 62/132/4 86/187/4
f 57/124/2 85/184/2 87/188/2
f 85/186/6 86/185/6 88/189/6 87/190/6
f 86/187/4 62/132/4 88/191/4
f 57/124/2 87/188/2 89/192/2
f 87/190/20 88/189/20 90/193/20 89/194/20
f 88/191/4 62/132/4 90/195/4
f 57/124/2 89/192/2 91/196/2
f 89/194/21 90/193/21 92/197/21 91/198/21
f 90/195/4 62/132/4 92/199/4
f 57/124/2 91/196/2 93/200/2
f 91/198/22 92/197/22 94/201/22 93/202/22
f 92/199/4 62/132/4 94/203/4
f 57/124/2 93/200/2 58/125/2
f 93/204/23 94/205/23 60/128/23 58/127/23
f 94/203/4 62/132/4 60/131/4
f 95/206/2 96/207/2 97/208/2
f 96/209/8 98/210/8 99/211/8 97/212/8
f 98/213/4 100/214/4 99/215/4
f 95/206/2 97/208/2 101/216/2
f 97/212/9 99/211/9 102/217/9 101/218/9
f 99/215/4 100/214/4 102/219/4
f 95/206/2 101/216/2 103/220/2
f 101/221/10 102/222/10 104/223/10 103/224/10
f 102/219/4 100/214/4 104/225/4
f 95/206/2 103/220/2 105/226/2
f 103/224/11 104/223/11 106/227/11 105/228/11
f 104/225/4 100/214/4 106/229/4
f 95/206/2 105/226/2 107/230/2
f 105/228/5 106/227/5 108/231/5 107/232/5
f 106/229/4 100/214/4 108/233/4
f 95/206/2 107/230/2 109/234/2
f 107/232/12 108/231/12 110/235/12 109/236/12
f 108/233/4 100/214/4 110/237/4
f 95/206/2 109/234/2 111/238/2
f 109/236/13 110/235/13 112/239/13 111/240/13
f 110/237/4 100/214/4 112/241/4
f 95/206/2 111/238/2 113/242/2
f 111/240/14 112/239/14 114/243/14 113/244/14
f 112/241/4 100/214/4 114/245/4
f 95/206/2 113/242/2 115/246/2
f 113/247/15 114/248/15 116/249/15 115/250/15
f 114/245/4 100/214/4 116/251/4
f 95/206/2 115/246/2 117/252/2
f 115/250/16 116/249/16 118/253/16 117/254/16
f 116/251/4 100/214/4 118/255/4
f 95/206/2 117/252/2 119/256/2
f 117/254/17 118/253/17 120/257/17 119/258/17
f 118/255/4 100/214/4 120/259/4
f 95/206/2 119/256/2 121/260/2
f 119/261/18 120/262/18 122/263/18 121/264/18
f 120/259/4 100/214/4 122/265/4
f 95/206/2 121/260/2 123/266/2
f 121/264/19 122/263/19 124/267/19 123/268/19
f 122/265/4 100/214/4 124/269/4
f 95/206/2 123/266/2 125/270/2
f 123/268/6 124/267/6 126/271/6 125/272/6
f 124/269/4 100/214/4 126/273/4
f 95/206/2 125/270/2 127/274/2
f 125/272/20 126/271/20 128/275/20 127/276/20
f 126/273/4 100/214/4 128/277/4
f 95/206/2 127/274/2 129/278/2
f 127/276/21 128/275/21 130/279/21 129/280/21
f 128/277/4 100/214/4 130/281/4
f 95/206/2 129/278/2 131/282/2
f 129/280/22 130/279/22 132/283/22 131/284/22
f 130/281/4 100/214/4 132/285/4
f 95/206/2 131/282/2 96/207/2
f 131/286/23 132/287/23 98/210/23 96/209/23
f 132/285/4 100/214/4 98/213/4
f 133/288/2 134/289/2 135/290/2
f 134/291/8 136/292/8 137/293/8 135/294/8
f 136/295/4 138/296/4 137/297/4
f 133/288/2 135/290/2 139/298/2
f 135/294/9 137/293/9 140/299/9 139/300/9
f 137/297/4 138/296/4 140/301/4
f 133/288/2 139/298/2 141/302/2
f 139/303/10 140/304/10 142/305/10 141/306/10
f 140/301/4 138/296/4 142/307/4
f 133/288/2 141/302/2 143/308/2
f 141/306/11 142/305/11 144/309/11 143/310/11
f 142/307/4 138/296/4 144/311/4
f 133/288/2 143/308/2 145/312/2
f 143/310/5 144/309/5 146/313/5 145/314/5
f 144/311/4 138/296/4 146/315/4
f 133/288/2 145/312/2 147/316/2
f 145/314/12 146/313/12 148/317/12 147/318/12
f 146/315/4 138/296/4 148/319/4
f 133/288/2 147/316/2 149/320/2
f 147/318/13 148/317/13 150/321/13 149/322/13
f 148/319/4 138/296/4 150/323/4
f 133/288/2 149/320/2 151/324/2
f 149/322/14 150/321/14 152/325/14 151/326/14
f 150/323/4 138/296/4 152/327/4
f 133/288/2 151/324/2 153/328/2
f 151/329/15 152/330/15 154/331/15 153/332/15
f 152/327/4 138/296/4 154/333/4
f 133/288/2 153/328/2 155/334/2
f 153/332/16 154/331/16 156/335/16 155/336/16
f 154/333/4 138/296/4 156/337/4
f 133/288/2 155/334/2 157/338/2
f 155/336/17 156/335/17 158/339/17 157/340/17
f 156/337/4 138/296/4 158/341/4
f 133/288/2 157/338/2 159/342/2
f 157/343/18 158/344/18 160/345/18 159/346/18
f 158/341/4 138/296/4 160/347/4
f 133/288/2 159/342/2 161/348/2
f 159/346/19 160/345/19 162/349/19 161/350/19
f 160/347/4 138/296/4 162/351/4
f 133/288/2 161/348/2 163/352/2
f 161/350/6 162/349/6 164/353/6 163/354/6
f 162/351/4 138/296/4 164/355/4
f 133/288/2 163/352/2 165/356/2
f 163/354/20 164/353/20 166/357/20 165/358/20
f 164/355/4 138/296/4 166/359/4
f 133/288/2 165/356/2 167/360/2
f 165/358/21 166/357/21 168/361/21 167/362/21
f 166/359/4 138/296/4 168/363/4
f 133/288/2 167/360/2 169/364/2
f 167/362/22 168/361/22 170/365/22 169/366/22
f 168/363/4 138/296/4 170/367/4
f 133/288/2 169/364/2 134/289/2
f 169/368/23 170/369/23 136/292/23 134/291/23
f 170/367/4 138/296/4 136/295/4
f 6/8/2 16/34/2 15/370/2 4/5/2
