# Blender v2.79 (sub 0) OBJ File: ''
# www.blender.org
mtllib car.mtl
o _9
v 15.140800 -25.334801 -6.130013
v 15.140800 -25.334801 2.857638
v -20.326401 -25.334801 2.857643
v -20.326403 -25.334801 -6.130007
v -20.326401 28.155701 5.322144
v -20.326401 51.204201 1.539593
v -20.326403 49.128700 -6.130007
v -20.326403 28.155701 -6.130007
v 15.140800 51.204201 1.539598
v 15.140800 49.128700 -6.130013
v 15.140801 -9.381670 5.322138
v 15.140800 -9.381670 -6.130013
v -20.326401 -9.381670 5.322144
v 15.140800 28.155701 -6.130013
v -20.326403 -9.381670 -6.130007
v 15.140801 28.155701 5.322138
v 15.140803 -7.353470 18.875097
v 15.140803 22.267099 18.875097
v -20.326397 22.267099 18.875103
v -20.326397 -7.353470 18.875103
v -18.440599 35.248100 -4.894387
v -18.440599 40.517399 -4.894387
v -18.440599 40.199600 -3.191217
v -21.759800 40.517399 -4.894387
v -21.759800 40.199600 -3.191216
v -21.759800 35.248100 -4.894387
v -18.440599 39.284599 -1.693477
v -21.759800 39.284599 -1.693476
v -18.440599 37.882702 -0.581805
v -21.759800 37.882702 -0.581805
v -18.440599 36.163101 0.009700
v -21.759800 36.163101 0.009701
v -18.440599 34.333000 0.009700
v -21.759800 34.333000 0.009701
v -18.440599 32.613400 -0.581805
v -21.759800 32.613400 -0.581805
v -18.440599 31.211500 -1.693477
v -21.759800 31.211500 -1.693476
v -18.440599 30.296499 -3.191217
v -21.759800 30.296499 -3.191216
v -18.440599 29.978701 -4.894387
v -21.759800 29.978701 -4.894387
v -18.440601 30.296499 -6.597567
v -21.759802 30.296499 -6.597567
v -18.440601 31.211500 -8.095307
v -21.759802 31.211500 -8.095306
v -18.440601 32.613400 -9.206977
v -21.759802 32.613400 -9.206976
v -18.440601 34.333000 -9.798477
v -21.759802 34.333000 -9.798476
v -18.440601 36.163101 -9.798477
v -21.759802 36.163101 -9.798476
v -18.440601 37.882702 -9.206977
v -21.759802 37.882702 -9.206976
v -18.440601 39.284599 -8.095307
v -21.759802 39.284599 -8.095306
v -18.440601 40.199600 -6.597567
v -21.759802 40.199600 -6.597567
v 17.084499 35.248100 -4.894393
v 17.084499 40.517399 -4.894393
v 17.084499 40.199600 -3.191223
v 13.765299 40.517399 -4.894392
v 13.765299 40.199600 -3.191222
v 13.765299 35.248100 -4.894392
v 17.084499 39.284599 -1.693473
v 13.765300 39.284599 -1.693472
v 17.084499 37.882702 -0.581810
v 13.765300 37.882702 -0.581809
v 17.084499 36.163101 0.009696
v 13.765300 36.163101 0.009697
v 17.084499 34.333000 0.009696
v 13.765300 34.333000 0.009697
v 17.084499 32.613400 -0.581810
v 13.765300 32.613400 -0.581809
v 17.084499 31.211500 -1.693473
v 13.765300 31.211500 -1.693472
v 17.084499 30.296499 -3.191223
v 13.765299 30.296499 -3.191222
v 17.084499 29.978701 -4.894393
v 13.765299 29.978701 -4.894392
v 17.084497 30.296499 -6.597573
v 13.765299 30.296499 -6.597572
v 17.084497 31.211500 -8.095313
v 13.765299 31.211500 -8.095312
v 17.084497 32.613400 -9.206983
v 13.765298 32.613400 -9.206982
v 17.084497 34.333000 -9.798483
v 13.765298 34.333000 -9.798482
v 17.084497 36.163101 -9.798483
v 13.765298 36.163101 -9.798482
v 17.084497 37.882702 -9.206983
v 13.765298 37.882702 -9.206982
v 17.084497 39.284599 -8.095313
v 13.765299 39.284599 -8.095312
v 17.084497 40.199600 -6.597573
v 13.765299 40.199600 -6.597572
v -18.983200 -8.276520 -5.149857
v -18.983200 -3.007170 -5.149857
v -18.983200 -3.324950 -3.446677
v -22.302401 -3.007170 -5.149856
v -22.302401 -3.324960 -3.446676
v -22.302401 -8.276520 -5.149856
v -18.983200 -4.239970 -1.948937
v -22.302401 -4.239970 -1.948936
v -18.983200 -5.641850 -0.837269
v -22.302401 -5.641850 -0.837268
v -18.983200 -7.361510 -0.245764
v -22.302401 -7.361510 -0.245763
v -18.983200 -9.191530 -0.245764
v -22.302401 -9.191530 -0.245763
v -18.983200 -10.911200 -0.837269
v -22.302401 -10.911200 -0.837268
v -18.983200 -12.313100 -1.948937
v -22.302401 -12.313100 -1.948936
v -18.983200 -13.228100 -3.446677
v -22.302401 -13.228100 -3.446676
v -18.983200 -13.545900 -5.149857
v -22.302401 -13.545900 -5.149856
v -18.983202 -13.228100 -6.853027
v -22.302402 -13.228100 -6.853026
v -18.983202 -12.313100 -8.350777
v -22.302402 -12.313100 -8.350776
v -18.983202 -10.911200 -9.462437
v -22.302402 -10.911200 -9.462436
v -18.983202 -9.191530 -10.053897
v -22.302402 -9.191530 -10.053896
v -18.983202 -7.361510 -10.053897
v -22.302402 -7.361510 -10.053896
v -18.983202 -5.641850 -9.462437
v -22.302402 -5.641850 -9.462436
v -18.983202 -4.239970 -8.350777
v -22.302402 -4.239970 -8.350776
v -18.983202 -3.324950 -6.853027
v -22.302402 -3.324960 -6.853026
v 16.541901 -8.276520 -5.149863
v 16.541901 -3.007170 -5.149863
v 16.541901 -3.324950 -3.446683
v 13.222699 -3.007170 -5.149862
v 13.222699 -3.324950 -3.446682
v 13.222699 -8.276520 -5.149862
v 16.541901 -4.239970 -1.948943
v 13.222700 -4.239970 -1.948942
v 16.541901 -5.641850 -0.837274
v 13.222700 -5.641850 -0.837273
v 16.541901 -7.361510 -0.245768
v 13.222700 -7.361510 -0.245767
v 16.541901 -9.191530 -0.245768
v 13.222700 -9.191530 -0.245767
v 16.541901 -10.911200 -0.837274
v 13.222700 -10.911200 -0.837273
v 16.541901 -12.313100 -1.948943
v 13.222700 -12.313100 -1.948942
v 16.541901 -13.228100 -3.446683
v 13.222699 -13.228100 -3.446682
v 16.541901 -13.545900 -5.149863
v 13.222699 -13.545900 -5.149862
v 16.541899 -13.228100 -6.853033
v 13.222699 -13.228100 -6.853033
v 16.541899 -12.313100 -8.350773
v 13.222699 -12.313100 -8.350772
v 16.541899 -10.911200 -9.462442
v 13.222698 -10.911200 -9.462441
v 16.541899 -9.191530 -10.053903
v 13.222698 -9.191530 -10.053902
v 16.541899 -7.361510 -10.053903
v 13.222698 -7.361510 -10.053902
v 16.541899 -5.641850 -9.462442
v 13.222698 -5.641850 -9.462441
v 16.541899 -4.239970 -8.350773
v 13.222699 -4.239970 -8.350772
v 16.541899 -3.324950 -6.853033
v 13.222699 -3.324950 -6.853033
vt 0.675888 -0.075510
vt 0.675888 -0.007822
vt 0.990779 -0.007822
vt 0.990779 -0.075510
vt 0.484130 -0.701967
vt 0.688763 -0.730454
vt 0.670336 -0.788216
vt 0.484130 -0.788216
vt 0.324112 -0.568622
vt 0.324112 -0.584253
vt 0.009221 -0.584253
vt 0.009221 -0.568622
vt 0.547125 -0.905929
vt 0.688763 -0.924490
vt 0.688763 -0.992178
vt 0.547125 -0.992178
vt 0.342554 -0.584253
vt 0.342554 -0.464107
vt 0.657446 -0.464107
vt 0.657446 -0.584253
vt 0.009221 -0.410670
vt 0.324112 -0.410670
vt 0.150859 -0.788216
vt 0.150859 -0.701967
vt 0.213854 -0.992178
vt 0.027648 -0.992178
vt 0.009221 -0.934417
vt 0.213854 -0.905929
vt 0.342554 -0.181405
vt 0.342554 -0.007822
vt 0.657446 -0.007822
vt 0.657446 -0.181405
vt 0.009221 -0.127968
vt 0.324112 -0.127968
vt 0.342554 -0.448832
vt 0.342554 -0.225753
vt 0.657446 -0.225753
vt 0.657446 -0.448832
vt 0.009221 -0.788216
vt 0.009221 -0.720528
vt 0.009221 -0.007822
vt 0.324112 -0.007822
vt 0.168866 -0.599897
vt 0.431849 -0.599897
vt 0.266135 -0.803859
vt 0.529118 -0.803859
vt 0.722671 -0.396622
vt 0.675888 -0.396622
vt 0.678709 -0.383795
vt 0.865277 -0.524097
vt 0.835808 -0.524097
vt 0.835808 -0.511270
vt 0.865277 -0.511270
vt 0.881463 -0.307110
vt 0.834680 -0.307110
vt 0.878642 -0.294283
vt 0.686833 -0.372515
vt 0.835808 -0.499990
vt 0.865277 -0.499990
vt 0.870518 -0.283004
vt 0.699279 -0.364143
vt 0.739985 -0.538711
vt 0.769454 -0.538711
vt 0.769454 -0.549269
vt 0.739985 -0.549269
vt 0.858071 -0.274631
vt 0.714547 -0.359688
vt 0.769454 -0.562220
vt 0.739985 -0.562220
vt 0.842804 -0.270177
vt 0.730795 -0.359688
vt 0.769454 -0.576002
vt 0.739985 -0.576002
vt 0.826556 -0.270177
vt 0.746063 -0.364143
vt 0.769454 -0.588953
vt 0.739985 -0.588953
vt 0.811288 -0.274631
vt 0.758509 -0.372515
vt 0.769454 -0.599511
vt 0.739985 -0.599511
vt 0.798842 -0.283004
vt 0.766633 -0.383795
vt 0.835808 -0.563847
vt 0.865277 -0.563847
vt 0.865277 -0.575127
vt 0.835808 -0.575127
vt 0.790718 -0.294283
vt 0.769454 -0.396622
vt 0.865277 -0.587954
vt 0.835808 -0.587954
vt 0.787897 -0.307110
vt 0.766633 -0.409449
vt 0.865277 -0.600781
vt 0.835808 -0.600781
vt 0.790718 -0.319937
vt 0.758509 -0.420729
vt 0.865277 -0.612061
vt 0.835808 -0.612061
vt 0.798842 -0.331217
vt 0.746063 -0.429101
vt 0.739985 -0.615155
vt 0.769454 -0.615155
vt 0.769454 -0.625713
vt 0.739985 -0.625713
vt 0.811288 -0.339589
vt 0.730795 -0.433556
vt 0.769454 -0.638664
vt 0.739985 -0.638664
vt 0.826556 -0.344044
vt 0.714547 -0.433556
vt 0.769454 -0.652446
vt 0.739985 -0.652446
vt 0.842804 -0.344044
vt 0.699279 -0.429101
vt 0.769454 -0.665398
vt 0.739985 -0.665398
vt 0.858071 -0.339589
vt 0.686833 -0.420729
vt 0.769454 -0.675955
vt 0.739985 -0.675955
vt 0.870518 -0.331217
vt 0.678709 -0.409449
vt 0.865277 -0.548203
vt 0.835808 -0.548203
vt 0.835808 -0.536924
vt 0.865277 -0.536924
vt 0.878642 -0.319937
vt 0.834680 -0.217599
vt 0.787897 -0.217599
vt 0.790718 -0.204772
vt 0.913188 -0.383795
vt 0.883719 -0.383795
vt 0.883719 -0.370968
vt 0.913188 -0.370968
vt 0.881463 -0.128088
vt 0.834680 -0.128088
vt 0.878642 -0.115261
vt 0.798842 -0.193492
vt 0.883719 -0.359688
vt 0.913188 -0.359688
vt 0.870518 -0.103981
vt 0.811288 -0.185120
vt 0.835808 -0.359688
vt 0.865277 -0.359688
vt 0.865277 -0.370246
vt 0.835808 -0.370246
vt 0.858071 -0.095609
vt 0.826556 -0.180665
vt 0.865277 -0.383197
vt 0.835808 -0.383197
vt 0.842804 -0.091154
vt 0.842804 -0.180665
vt 0.865277 -0.396979
vt 0.835808 -0.396979
vt 0.826556 -0.091154
vt 0.858071 -0.185120
vt 0.865277 -0.409930
vt 0.835808 -0.409930
vt 0.811288 -0.095609
vt 0.870518 -0.193492
vt 0.865277 -0.420488
vt 0.835808 -0.420488
vt 0.798842 -0.103981
vt 0.878642 -0.204772
vt 0.883719 -0.423546
vt 0.913188 -0.423546
vt 0.913188 -0.434825
vt 0.883719 -0.434825
vt 0.790718 -0.115261
vt 0.881463 -0.217599
vt 0.913188 -0.447652
vt 0.883719 -0.447652
vt 0.787897 -0.128088
vt 0.878642 -0.230426
vt 0.913188 -0.460479
vt 0.883719 -0.460479
vt 0.790718 -0.140914
vt 0.870518 -0.241706
vt 0.913188 -0.471759
vt 0.883719 -0.471759
vt 0.798842 -0.152194
vt 0.858071 -0.250078
vt 0.787897 -0.589021
vt 0.817366 -0.589021
vt 0.817366 -0.599579
vt 0.787897 -0.599579
vt 0.811288 -0.160567
vt 0.842804 -0.254533
vt 0.817366 -0.612530
vt 0.787897 -0.612530
vt 0.826556 -0.165021
vt 0.826556 -0.254533
vt 0.817366 -0.626312
vt 0.787897 -0.626312
vt 0.842804 -0.165021
vt 0.811288 -0.250078
vt 0.817366 -0.639263
vt 0.787897 -0.639263
vt 0.858071 -0.160567
vt 0.798842 -0.241706
vt 0.817366 -0.649821
vt 0.787897 -0.649821
vt 0.870518 -0.152194
vt 0.790718 -0.230426
vt 0.913188 -0.407902
vt 0.883719 -0.407902
vt 0.883719 -0.396622
vt 0.913188 -0.396622
vt 0.878642 -0.140914
vt 0.722671 -0.486133
vt 0.675888 -0.486133
vt 0.678709 -0.473306
vt 0.865277 -0.651812
vt 0.835808 -0.651812
vt 0.835808 -0.638985
vt 0.865277 -0.638985
vt 0.769454 -0.128088
vt 0.722671 -0.128088
vt 0.766633 -0.115261
vt 0.686833 -0.462026
vt 0.835808 -0.627705
vt 0.865277 -0.627705
vt 0.758509 -0.103981
vt 0.699279 -0.453654
vt 0.787897 -0.359688
vt 0.817366 -0.359688
vt 0.817366 -0.370246
vt 0.787897 -0.370246
vt 0.746063 -0.095609
vt 0.714547 -0.449199
vt 0.817366 -0.383197
vt 0.787897 -0.383197
vt 0.730795 -0.091154
vt 0.730795 -0.449199
vt 0.817366 -0.396979
vt 0.787897 -0.396979
vt 0.714547 -0.091154
vt 0.746063 -0.453654
vt 0.817366 -0.409930
vt 0.787897 -0.409930
vt 0.699279 -0.095609
vt 0.758509 -0.462026
vt 0.817366 -0.420488
vt 0.787897 -0.420488
vt 0.686833 -0.103981
vt 0.766633 -0.473306
vt 0.835808 -0.436132
vt 0.865277 -0.436132
vt 0.865277 -0.447412
vt 0.835808 -0.447412
vt 0.678709 -0.115261
vt 0.769454 -0.486133
vt 0.865277 -0.460239
vt 0.835808 -0.460239
vt 0.675888 -0.128088
vt 0.766633 -0.498960
vt 0.865277 -0.473066
vt 0.835808 -0.473066
vt 0.678709 -0.140914
vt 0.758509 -0.510240
vt 0.865277 -0.484346
vt 0.835808 -0.484346
vt 0.686833 -0.152194
vt 0.746063 -0.518612
vt 0.787897 -0.436132
vt 0.817366 -0.436132
vt 0.817366 -0.446690
vt 0.787897 -0.446690
vt 0.699279 -0.160567
vt 0.730795 -0.523067
vt 0.817366 -0.459641
vt 0.787897 -0.459641
vt 0.714547 -0.165021
vt 0.714547 -0.523067
vt 0.817366 -0.473424
vt 0.787897 -0.473424
vt 0.730795 -0.165021
vt 0.699279 -0.518612
vt 0.817366 -0.486375
vt 0.787897 -0.486375
vt 0.746063 -0.160567
vt 0.686833 -0.510240
vt 0.817366 -0.496933
vt 0.787897 -0.496933
vt 0.758509 -0.152194
vt 0.678709 -0.498960
vt 0.865277 -0.675918
vt 0.835808 -0.675918
vt 0.835808 -0.664639
vt 0.865277 -0.664639
vt 0.766633 -0.140914
vt 0.722671 -0.217599
vt 0.675888 -0.217599
vt 0.678709 -0.204772
vt 0.769454 -0.715706
vt 0.739985 -0.715706
vt 0.739985 -0.702879
vt 0.769454 -0.702879
vt 0.769454 -0.307110
vt 0.722671 -0.307110
vt 0.766633 -0.294283
vt 0.686833 -0.193492
vt 0.739985 -0.691599
vt 0.769454 -0.691599
vt 0.758509 -0.283004
vt 0.699279 -0.185120
vt 0.787897 -0.665465
vt 0.817366 -0.665465
vt 0.817366 -0.676023
vt 0.787897 -0.676023
vt 0.746063 -0.274631
vt 0.714547 -0.180665
vt 0.817366 -0.688974
vt 0.787897 -0.688974
vt 0.730795 -0.270177
vt 0.730795 -0.180665
vt 0.817366 -0.702756
vt 0.787897 -0.702756
vt 0.714547 -0.270177
vt 0.746063 -0.185120
vt 0.817366 -0.715707
vt 0.787897 -0.715707
vt 0.699279 -0.274631
vt 0.758509 -0.193492
vt 0.817366 -0.726265
vt 0.787897 -0.726265
vt 0.686833 -0.283004
vt 0.766633 -0.204772
vt 0.835808 -0.691562
vt 0.865277 -0.691562
vt 0.865277 -0.702842
vt 0.835808 -0.702842
vt 0.678709 -0.294283
vt 0.769454 -0.217599
vt 0.865277 -0.715669
vt 0.835808 -0.715669
vt 0.675888 -0.307110
vt 0.766633 -0.230426
vt 0.865277 -0.728496
vt 0.835808 -0.728496
vt 0.678709 -0.319937
vt 0.758509 -0.241706
vt 0.865277 -0.739776
vt 0.835808 -0.739776
vt 0.686833 -0.331217
vt 0.746063 -0.250078
vt 0.787897 -0.512576
vt 0.817366 -0.512576
vt 0.817366 -0.523134
vt 0.787897 -0.523134
vt 0.699279 -0.339589
vt 0.730795 -0.254533
vt 0.817366 -0.536085
vt 0.787897 -0.536085
vt 0.714547 -0.344044
vt 0.714547 -0.254533
vt 0.817366 -0.549868
vt 0.787897 -0.549868
vt 0.730795 -0.344044
vt 0.699279 -0.250078
vt 0.817366 -0.562819
vt 0.787897 -0.562819
vt 0.746063 -0.339589
vt 0.686833 -0.241706
vt 0.817366 -0.573377
vt 0.787897 -0.573377
vt 0.758509 -0.331217
vt 0.678709 -0.230426
vt 0.769454 -0.739813
vt 0.739985 -0.739813
vt 0.739985 -0.728533
vt 0.769454 -0.728533
vt 0.766633 -0.319937
vn 0.0000 -1.0000 -0.0000
vn -1.0000 -0.0000 0.0000
vn -0.0000 0.9653 -0.2612
vn 1.0000 -0.0000 -0.0000
vn 0.0000 -0.1527 0.9883
vn -0.0000 0.0000 -1.0000
vn 0.0000 0.1619 0.9868
vn 0.0000 0.0000 1.0000
vn 0.0000 -0.9890 0.1480
vn 0.0000 0.9172 0.3985
vn 0.0000 0.9830 0.1834
vn 0.0000 0.8534 0.5213
vn 0.0000 0.6213 0.7835
vn -0.0000 0.3253 0.9456
vn -0.0000 -0.3253 0.9456
vn 0.0000 -0.6213 0.7835
vn 0.0000 -0.8534 0.5213
vn 0.0000 -0.9830 0.1834
vn -0.0000 -0.9830 -0.1834
vn -0.0000 -0.8534 -0.5213
vn -0.0000 -0.6213 -0.7835
vn -0.0000 -0.3253 -0.9456
vn -0.0000 0.3253 -0.9456
vn -0.0000 0.6213 -0.7835
vn -0.0000 0.8534 -0.5213
vn -0.0000 0.9830 -0.1834
vn -0.0000 -0.6213 -0.7836
vn -0.0000 -0.3252 -0.9456
vn -0.0000 0.3252 -0.9456
vn 0.0000 0.8533 0.5213
vn -0.0000 0.8533 -0.5213
usemtl material_10
s off
f 1/1/1 2/2/1 3/3/1 4/4/1
f 5/5/2 6/6/2 7/7/2 8/8/2
f 7/9/3 6/10/3 9/11/3 10/12/3
f 11/13/4 2/14/4 1/15/4 12/16/4
f 2/17/5 11/18/5 13/19/5 3/20/5
f 10/12/6 14/21/6 8/22/6 7/9/6
f 8/8/2 15/23/2 13/24/2 5/5/2
f 14/25/4 10/26/4 9/27/4 16/28/4
f 16/29/7 9/30/7 6/31/7 5/32/7
f 14/21/6 12/33/6 15/34/6 8/22/6
f 12/16/4 14/25/4 16/28/4 11/13/4
f 17/35/8 18/36/8 19/37/8 20/38/8
f 15/23/2 4/39/2 3/40/2 13/24/2
f 12/33/6 1/41/6 4/42/6 15/34/6
f 11/18/9 17/35/9 20/38/9 13/19/9
f 13/24/2 20/43/2 19/44/2 5/5/2
f 5/32/10 19/37/10 18/36/10 16/29/10
f 16/28/4 18/45/4 17/46/4 11/13/4
f 21/47/4 22/48/4 23/49/4
f 22/50/11 24/51/11 25/52/11 23/53/11
f 24/54/2 26/55/2 25/56/2
f 21/47/4 23/49/4 27/57/4
f 23/53/12 25/52/12 28/58/12 27/59/12
f 25/56/2 26/55/2 28/60/2
f 21/47/4 27/57/4 29/61/4
f 27/62/13 28/63/13 30/64/13 29/65/13
f 28/60/2 26/55/2 30/66/2
f 21/47/4 29/61/4 31/67/4
f 29/65/14 30/64/14 32/68/14 31/69/14
f 30/66/2 26/55/2 32/70/2
f 21/47/4 31/67/4 33/71/4
f 31/69/8 32/68/8 34/72/8 33/73/8
f 32/70/2 26/55/2 34/74/2
f 21/47/4 33/71/4 35/75/4
f 33/73/15 34/72/15 36/76/15 35/77/15
f 34/74/2 26/55/2 36/78/2
f 21/47/4 35/75/4 37/79/4
f 35/77/16 36/76/16 38/80/16 37/81/16
f 36/78/2 26/55/2 38/82/2
f 21/47/4 37/79/4 39/83/4
f 37/84/17 38/85/17 40/86/17 39/87/17
f 38/82/2 26/55/2 40/88/2
f 21/47/4 39/83/4 41/89/4
f 39/87/18 40/86/18 42/90/18 41/91/18
f 40/88/2 26/55/2 42/92/2
f 21/47/4 41/89/4 43/93/4
f 41/91/19 42/90/19 44/94/19 43/95/19
f 42/92/2 26/55/2 44/96/2
f 21/47/4 43/93/4 45/97/4
f 43/95/20 44/94/20 46/98/20 45/99/20
f 44/96/2 26/55/2 46/100/2
f 21/47/4 45/97/4 47/101/4
f 45/102/21 46/103/21 48/104/21 47/105/21
f 46/100/2 26/55/2 48/106/2
f 21/47/4 47/101/4 49/107/4
f 47/105/22 48/104/22 50/108/22 49/109/22
f 48/106/2 26/55/2 50/110/2
f 21/47/4 49/107/4 51/111/4
f 49/109/6 50/108/6 52/112/6 51/113/6
f 50/110/2 26/55/2 52/114/2
f 21/47/4 51/111/4 53/115/4
f 51/113/23 52/112/23 54/116/23 53/117/23
f 52/114/2 26/55/2 54/118/2
f 21/47/4 53/115/4 55/119/4
f 53/117/24 54/116/24 56/120/24 55/121/24
f 54/118/2 26/55/2 56/122/2
f 21/47/4 55/119/4 57/123/4
f 55/124/25 56/125/25 58/126/25 57/127/25
f 56/122/2 26/55/2 58/128/2
f 21/47/4 57/123/4 22/48/4
f 57/127/26 58/126/26 24/51/26 22/50/26
f 58/128/2 26/55/2 24/54/2
f 59/129/4 60/130/4 61/131/4
f 60/132/11 62/133/11 63/134/11 61/135/11
f 62/136/2 64/137/2 63/138/2
f 59/129/4 61/131/4 65/139/4
f 61/135/12 63/134/12 66/140/12 65/141/12
f 63/138/2 64/137/2 66/142/2
f 59/129/4 65/139/4 67/143/4
f 65/144/13 66/145/13 68/146/13 67/147/13
f 66/142/2 64/137/2 68/148/2
f 59/129/4 67/143/4 69/149/4
f 67/147/14 68/146/14 70/150/14 69/151/14
f 68/148/2 64/137/2 70/152/2
f 59/129/4 69/149/4 71/153/4
f 69/151/8 70/150/8 72/154/8 71/155/8
f 70/152/2 64/137/2 72/156/2
f 59/129/4 71/153/4 73/157/4
f 71/155/15 72/154/15 74/158/15 73/159/15
f 72/156/2 64/137/2 74/160/2
f 59/129/4 73/157/4 75/161/4
f 73/159/16 74/158/16 76/162/16 75/163/16
f 74/160/2 64/137/2 76/164/2
f 59/129/4 75/161/4 77/165/4
f 75/166/17 76/167/17 78/168/17 77/169/17
f 76/164/2 64/137/2 78/170/2
f 59/129/4 77/165/4 79/171/4
f 77/169/18 78/168/18 80/172/18 79/173/18
f 78/170/2 64/137/2 80/174/2
f 59/129/4 79/171/4 81/175/4
f 79/173/19 80/172/19 82/176/19 81/177/19
f 80/174/2 64/137/2 82/178/2
f 59/129/4 81/175/4 83/179/4
f 81/177/20 82/176/20 84/180/20 83/181/20
f 82/178/2 64/137/2 84/182/2
f 59/129/4 83/179/4 85/183/4
f 83/184/21 84/185/21 86/186/21 85/187/21
f 84/182/2 64/137/2 86/188/2
f 59/129/4 85/183/4 87/189/4
f 85/187/22 86/186/22 88/190/22 87/191/22
f 86/188/2 64/137/2 88/192/2
f 59/129/4 87/189/4 89/193/4
f 87/191/6 88/190/6 90/194/6 89/195/6
f 88/192/2 64/137/2 90/196/2
f 59/129/4 89/193/4 91/197/4
f 89/195/23 90/194/23 92/198/23 91/199/23
f 90/196/2 64/137/2 92/200/2
f 59/129/4 91/197/4 93/201/4
f 91/199/24 92/198/24 94/202/24 93/203/24
f 92/200/2 64/137/2 94/204/2
f 59/129/4 93/201/4 95/205/4
f 93/206/25 94/207/25 96/208/25 95/209/25
f 94/204/2 64/137/2 96/210/2
f 59/129/4 95/205/4 60/130/4
f 95/209/26 96/208/26 62/133/26 60/132/26
f 96/210/2 64/137/2 62/136/2
f 97/211/4 98/212/4 99/213/4
f 98/214/11 100/215/11 101/216/11 99/217/11
f 100/218/2 102/219/2 101/220/2
f 97/211/4 99/213/4 103/221/4
f 99/217/12 101/216/12 104/222/12 103/223/12
f 101/220/2 102/219/2 104/224/2
f 97/211/4 103/221/4 105/225/4
f 103/226/13 104/227/13 106/228/13 105/229/13
f 104/224/2 102/219/2 106/230/2
f 97/211/4 105/225/4 107/231/4
f 105/229/14 106/228/14 108/232/14 107/233/14
f 106/230/2 102/219/2 108/234/2
f 97/211/4 107/231/4 109/235/4
f 107/233/8 108/232/8 110/236/8 109/237/8
f 108/234/2 102/219/2 110/238/2
f 97/211/4 109/235/4 111/239/4
f 109/237/15 110/236/15 112/240/15 111/241/15
f 110/238/2 102/219/2 112/242/2
f 97/211/4 111/239/4 113/243/4
f 111/241/16 112/240/16 114/244/16 113/245/16
f 112/242/2 102/219/2 114/246/2
f 97/211/4 113/243/4 115/247/4
f 113/248/17 114/249/17 116/250/17 115/251/17
f 114/246/2 102/219/2 116/252/2
f 97/211/4 115/247/4 117/253/4
f 115/251/18 116/250/18 118/254/18 117/255/18
f 116/252/2 102/219/2 118/256/2
f 97/211/4 117/253/4 119/257/4
f 117/255/19 118/254/19 120/258/19 119/259/19
f 118/256/2 102/219/2 120/260/2
f 97/211/4 119/257/4 121/261/4
f 119/259/20 120/258/20 122/262/20 121/263/20
f 120/260/2 102/219/2 122/264/2
f 97/211/4 121/261/4 123/265/4
f 121/266/27 122/267/27 124/268/27 123/269/27
f 122/264/2 102/219/2 124/270/2
f 97/211/4 123/265/4 125/271/4
f 123/269/28 124/268/28 126/272/28 125/273/28
f 124/270/2 102/219/2 126/274/2
f 97/211/4 125/271/4 127/275/4
f 125/273/6 126/272/6 128/276/6 127/277/6
f 126/274/2 102/219/2 128/278/2
f 97/211/4 127/275/4 129/279/4
f 127/277/29 128/276/29 130/280/29 129/281/29
f 128/278/2 102/219/2 130/282/2
f 97/211/4 129/279/4 131/283/4
f 129/281/24 130/280/24 132/284/24 131/285/24
f 130/282/2 102/219/2 132/286/2
f 97/211/4 131/283/4 133/287/4
f 131/288/25 132/289/25 134/290/25 133/291/25
f 132/286/2 102/219/2 134/292/2
f 97/211/4 133/287/4 98/212/4
f 133/291/26 134/290/26 100/215/26 98/214/26
f 134/292/2 102/219/2 100/218/2
f 135/293/4 136/294/4 137/295/4
f 136/296/11 138/297/11 139/298/11 137/299/11
f 138/300/2 140/301/2 139/302/2
f 135/293/4 137/295/4 141/303/4
f 137/299/30 139/298/30 142/304/30 141/305/30
f 139/302/2 140/301/2 142/306/2
f 135/293/4 141/303/4 143/307/4
f 141/308/13 142/309/13 144/310/13 143/311/13
f 142/306/2 140/301/2 144/312/2
f 135/293/4 143/307/4 145/313/4
f 143/311/14 144/310/14 146/314/14 145/315/14
f 144/312/2 140/301/2 146/316/2
f 135/293/4 145/313/4 147/317/4
f 145/315/8 146/314/8 148/318/8 147/319/8
f 146/316/2 140/301/2 148/320/2
f 135/293/4 147/317/4 149/321/4
f 147/319/15 148/318/15 150/322/15 149/323/15
f 148/320/2 140/301/2 150/324/2
f 135/293/4 149/321/4 151/325/4
f 149/323/16 150/322/16 152/326/16 151/327/16
f 150/324/2 140/301/2 152/328/2
f 135/293/4 151/325/4 153/329/4
f 151/330/17 152/331/17 154/332/17 153/333/17
f 152/328/2 140/301/2 154/334/2
f 135/293/4 153/329/4 155/335/4
f 153/333/18 154/332/18 156/336/18 155/337/18
f 154/334/2 140/301/2 156/338/2
f 135/293/4 155/335/4 157/339/4
f 155/337/19 156/336/19 158/340/19 157/341/19
f 156/338/2 140/301/2 158/342/2
f 135/293/4 157/339/4 159/343/4
f 157/341/20 158/340/20 160/344/20 159/345/20
f 158/342/2 140/301/2 160/346/2
f 135/293/4 159/343/4 161/347/4
f 159/348/21 160/349/21 162/350/21 161/351/21
f 160/346/2 140/301/2 162/352/2
f 135/293/4 161/347/4 163/353/4
f 161/351/28 162/350/28 164/354/28 163/355/28
f 162/352/2 140/301/2 164/356/2
f 135/293/4 163/353/4 165/357/4
f 163/355/6 164/354/6 166/358/6 165/359/6
f 164/356/2 140/301/2 166/360/2
f 135/293/4 165/357/4 167/361/4
f 165/359/29 166/358/29 168/362/29 167/363/29
f 166/360/2 140/301/2 168/364/2
f 135/293/4 167/361/4 169/365/4
f 167/363/24 168/362/24 170/366/24 169/367/24
f 168/364/2 140/301/2 170/368/2
f 135/293/4 169/365/4 171/369/4
f 169/370/31 170/371/31 172/372/31 171/373/31
f 170/368/2 140/301/2 172/374/2
f 135/293/4 171/369/4 136/294/4
f 171/373/26 172/372/26 138/297/26 136/296/26
f 172/374/2 140/301/2 138/300/2
